<svg width="37" height="37" viewBox="0 0 37 37" fill="none" xmlns="http://www.w3.org/2000/svg">
<path d="M12.9297 27.6521V23.1521M18.9297 20.152V27.6521M24.9297 27.6521V17.152M10.6797 17.902L12.8766 15.339C14.3029 13.675 16.5052 12.8931 18.6615 13.2851V13.2851C21.6478 13.8281 24.7104 12.8714 26.8566 10.7252L27.1797 10.402M16.2297 32.1521H21.6297C26.1294 32.1521 28.3792 32.1521 29.9564 31.0062C30.4658 30.6361 30.9137 30.1881 31.2838 29.6788C32.4297 28.1016 32.4297 25.8517 32.4297 21.352V15.952C32.4297 11.4524 32.4297 9.20252 31.2838 7.62533C30.9137 7.11596 30.4658 6.66802 29.9564 6.29794C28.3792 5.15204 26.1294 5.15204 21.6297 5.15204H16.2297C11.73 5.15204 9.48017 5.15204 7.90298 6.29794C7.39361 6.66802 6.94566 7.11596 6.57559 7.62533C5.42969 9.20252 5.42969 11.4524 5.42969 15.9521V21.3521C5.42969 25.8517 5.42969 28.1016 6.57559 29.6788C6.94566 30.1881 7.39361 30.6361 7.90298 31.0062C9.48017 32.1521 11.73 32.1521 16.2297 32.1521Z" stroke="#1C1D1D" stroke-width="2.25" stroke-linecap="round" stroke-linejoin="round"/>
</svg>
