<svg width="70" height="63" viewBox="0 0 70 63" fill="none" xmlns="http://www.w3.org/2000/svg">
<path fill-rule="evenodd" clip-rule="evenodd" d="M12.8359 1.72559C5.31394 8.16497 1.28214 15.5333 0.218103 24.7851C-0.06894 27.2827 -0.073889 32.8983 0.210588 33.3573C0.286106 33.4788 0.509729 34.3754 0.707873 35.3499C1.14247 37.4884 2.26058 40.8614 3.21666 42.919C4.04003 44.6907 5.67486 47.3661 6.93576 49.0054C7.42754 49.6449 7.82988 50.2382 7.82988 50.324C7.82988 50.4864 11.946 54.4335 12.2121 54.5263C12.4656 54.6147 12.5954 53.5303 12.5984 51.2999C12.6 49.9808 12.6867 49.0087 12.8275 48.7335C12.9789 48.4374 13.5704 48.0626 14.6119 47.6032L16.1699 46.9157L16.2727 45.763C16.4443 43.8406 17.5103 42.7968 19.3023 42.7968C20.3744 42.7968 21.3631 43.3939 21.8523 44.3367C22.2493 45.1016 22.2055 46.6799 21.7691 47.3395C21.0108 48.486 19.4791 48.991 18.1552 48.5311C17.6922 48.3702 17.3793 48.4389 16.0486 48.9939L14.4858 49.6458L14.3633 52.8791C14.2214 56.6271 13.952 56.0731 16.7198 57.7245C18.2483 58.6363 21.5537 60.227 21.9203 60.227C22.0081 60.227 22.1778 59.0147 22.2975 57.5329C22.8161 51.1169 22.8727 50.6389 23.1462 50.3638C23.2961 50.2131 24.2177 49.7565 25.1943 49.349L26.9699 48.6084L26.9846 47.4988C26.9965 46.5817 27.0869 46.2744 27.5054 45.7279C29.0922 43.6547 32.0432 44.2262 32.7687 46.7471C33.3199 48.6624 31.1843 50.7083 29.2031 50.1631C28.5644 49.9874 28.3247 50.0414 26.5755 50.7549C25.5169 51.1869 24.6236 51.6249 24.5902 51.7282C24.5266 51.9257 23.96 59.8517 23.96 60.543C23.96 60.8749 24.1578 61.0038 25.1214 61.3004C27.8587 62.1428 30.7822 62.4961 35.0495 62.4999C39.2217 62.5037 40.3143 62.3823 44.1476 61.4886C46.3763 60.9691 46.3201 61.0436 46.1342 58.8571C46.0488 57.8525 45.8792 55.8247 45.7573 54.3507L45.5359 51.6711L43.6179 50.8468C42.0722 50.1826 41.6126 50.0557 41.2497 50.1932C40.0355 50.6533 38.6832 50.1934 37.8158 49.0257C37.2126 48.2135 37.2859 46.5997 37.9667 45.7104C38.9579 44.4152 40.5026 44.1997 41.9506 45.1548C42.8748 45.7641 43.2834 46.6739 43.1472 47.8191L43.0475 48.659L45.0051 49.4697C46.4727 50.0776 47.0151 50.394 47.1717 50.7331C47.2866 50.9821 47.5212 53.0762 47.693 55.3867C47.8993 58.1618 48.0847 59.6703 48.239 59.8306C48.4327 60.0321 48.6906 59.9813 49.745 59.5342C51.0922 58.9629 52.8236 58.0204 54.7021 56.8359L55.8416 56.1173L55.8262 54.1082C55.8178 53.0031 55.7586 51.5655 55.6948 50.9132L55.5788 49.7275L54.1307 49.1097C52.7355 48.5147 52.6477 48.5004 51.7284 48.7201C50.9729 48.9008 50.6327 48.9017 50.0941 48.7247C49.1722 48.4215 48.202 47.4186 48.05 46.612C47.5549 43.982 49.9268 42.0873 52.2673 43.2432C53.3651 43.7851 53.7265 44.39 53.8077 45.8215L53.8765 47.0348L55.4347 47.6491C56.2918 47.987 57.1069 48.4323 57.2458 48.6389C57.4154 48.8906 57.5391 49.899 57.6212 51.6983C57.6885 53.1745 57.7835 54.3822 57.8322 54.3822C58.1616 54.3822 61.6285 51.0139 62.3441 49.9985C66.436 44.193 68.1291 40.6066 69.2421 35.3864C69.467 34.3316 69.7222 33.4227 69.809 33.3667C69.8959 33.3106 69.9335 31.2147 69.8924 28.709C69.8272 24.7243 69.7594 23.8721 69.3519 21.9089C67.9018 14.9249 64.3559 8.44972 59.4786 3.87905C56.7975 1.36668 55.7727 0.5 55.4833 0.5C55.3216 0.5 55.0217 0.726122 54.8168 1.00229C54.6119 1.27846 54.0194 1.9676 53.5005 2.53346L52.5569 3.56215L53.5317 4.4513C57.0321 7.64386 57.9578 8.47218 58.2622 8.68479C59.1017 9.27055 59.1859 9.79166 59.0594 13.6202L58.9408 17.2126L59.6727 17.6504C60.6225 18.2185 61.0648 19.1626 60.9481 20.373C60.9006 20.8645 60.7043 21.4835 60.5115 21.7484C60.0796 22.3424 58.8543 22.9674 58.1328 22.9621C57.2741 22.9557 56.1305 22.3396 55.7223 21.6635C54.8688 20.2497 55.0545 19.0455 56.3 17.9136L57.1368 17.1532L57.1331 13.7126L57.1296 10.2718L54.371 7.80605C52.8539 6.44987 51.5486 5.31707 51.4705 5.28894C51.2584 5.21222 50.2124 7.25865 49.6933 8.76589C49.0052 10.7637 48.6637 12.8007 48.6598 14.9295C48.6468 22.0587 52.6605 28.4625 59.1367 31.6452C60.3687 32.2507 63.1367 33.1924 63.6992 33.1973C63.8704 33.199 64.1239 33.2719 64.2626 33.3593C64.7847 33.6888 63.4932 38.0555 61.9613 41.1399C61.1242 42.8258 59.5189 45.4257 59.3125 45.4299C59.2491 45.4311 58.8675 45.0006 58.4644 44.4733C57.4049 43.0866 55.6765 41.3973 53.9595 40.0701C50.2886 37.233 46.1815 35.5055 41.7083 34.9172C40.4656 34.7537 39.1777 34.5827 38.8467 34.5371L38.2445 34.4542L38.2968 32.5915L38.3488 30.7288L40.3651 29.6146C41.4741 29.0018 42.6094 28.2868 42.8882 28.0254C43.353 27.5894 43.3871 27.4668 43.3006 26.5368C42.9945 23.2485 42.95 23.6226 43.7072 23.1325C45.1167 22.2205 45.6309 20.279 44.861 18.7752C43.6003 16.3127 40.0102 16.3799 38.7913 18.8888C38.0211 20.4742 38.7057 22.5427 40.2399 23.2655C40.933 23.5921 40.9658 23.6476 41.0756 24.6825C41.319 26.9744 41.461 26.749 38.9422 28.0648C37.7086 28.7094 36.5987 29.367 36.4759 29.526C36.3269 29.7191 36.2506 30.6216 36.2468 32.2357L36.2409 34.6558H34.9578H33.6748L33.672 32.2357C33.6704 30.9047 33.6066 29.7176 33.5301 29.5978C33.3875 29.3743 29.5242 27.1671 29.2754 27.1671C28.828 27.1671 28.6971 26.5684 28.8209 25.0878C28.9373 23.696 28.9902 23.5334 29.3579 23.4414C30.4757 23.1619 31.4671 21.6934 31.4671 20.3177C31.4671 17.5748 28.4228 16.015 26.1427 17.5896C25.1496 18.2753 24.8017 18.9788 24.7935 20.3177C24.7854 21.6386 25.2138 22.4839 26.2245 23.1407L26.9146 23.5893L26.7874 25.6495C26.6913 27.2009 26.7174 27.7784 26.8926 27.9888C27.0205 28.1425 28.1452 28.8141 29.3918 29.4815L31.6585 30.6946V32.5803C31.6585 34.746 31.8539 34.5524 29.4795 34.7391C25.3802 35.0617 21.0317 36.6215 17.2697 39.1189C15.6717 40.1797 12.3419 43.2788 11.1804 44.7864L10.6224 45.5106L9.61501 43.9645C8.35118 42.0249 7.68837 40.706 6.84026 38.4427C6.19615 36.7234 5.35115 33.5944 5.49303 33.4532C5.53097 33.4154 6.34022 33.1825 7.29154 32.9358C14.4068 31.0897 19.5103 25.635 21.0174 18.2656C21.2245 17.2531 21.3935 15.8623 21.3931 15.1748C21.392 13.4262 20.9246 10.7455 20.3001 8.90689C19.7282 7.2234 18.6983 5.19725 18.4591 5.28565C18.3777 5.3156 17.0664 6.47453 15.545 7.86085L12.7789 10.3813V13.8246V17.2678L13.4091 17.6384C14.2433 18.1288 14.6797 18.9962 14.6856 20.1761C14.694 21.826 13.5968 22.8748 11.8624 22.8748C10.078 22.8748 9.02131 21.8218 9.02131 20.0437C9.02131 18.8444 9.36994 18.2048 10.3651 17.5779L10.9448 17.2126L10.9232 13.4458C10.9115 11.374 10.9734 9.56097 11.0612 9.41704C11.149 9.27293 12.6075 7.89793 14.3023 6.3611C17.7136 3.2679 17.5279 3.60708 16.4274 2.48158C16.2652 2.31574 15.8216 1.80194 15.4418 1.34001C15.0619 0.878089 14.6423 0.5 14.5094 0.5C14.3763 0.5 13.6233 1.05161 12.8359 1.72559ZM27.1595 19.3962C26.912 19.6428 26.7095 20.0574 26.7095 20.3177C26.7095 20.9544 27.4727 21.6876 28.1355 21.6876C29.3398 21.6876 29.9175 20.0643 28.9759 19.3264C28.3353 18.8241 27.7092 18.8482 27.1595 19.3962ZM40.9067 19.3962C40.6593 19.6428 40.4568 20.0574 40.4568 20.3177C40.4568 20.9544 41.22 21.6876 41.8828 21.6876C42.1959 21.6876 42.5705 21.5164 42.8077 21.2649C44.0301 19.9683 42.1688 18.1385 40.9067 19.3962ZM11.1659 19.3496C11.0449 19.4702 10.9459 19.7825 10.9459 20.0437C10.9459 20.6474 11.2566 20.957 11.8624 20.957C12.1245 20.957 12.438 20.8583 12.5589 20.7378C12.6799 20.6172 12.7789 20.3049 12.7789 20.0437C12.7789 19.7825 12.6799 19.4702 12.5589 19.3496C12.2754 19.0671 11.4494 19.0671 11.1659 19.3496ZM57.4183 19.4884C56.9819 19.9692 57.1731 20.7306 57.7679 20.8793C58.7808 21.1327 59.4097 20.3699 58.8677 19.5454C58.5311 19.0338 57.8555 19.0072 57.4183 19.4884ZM18.5775 44.8976C17.6746 45.6052 18.1495 46.8935 19.3134 46.8935C19.7363 46.8935 20.4774 46.1166 20.4774 45.6733C20.4774 45.3395 19.654 44.519 19.3189 44.519C19.1767 44.519 18.8431 44.6894 18.5775 44.8976ZM50.2124 44.986C49.4625 45.5093 49.767 46.6828 50.7315 46.9879C51.1897 47.1329 51.9959 46.6449 52.0261 46.2043C52.1135 44.9345 51.1822 44.3089 50.2124 44.986ZM29.0923 46.7108C28.6511 47.1504 28.6339 47.4122 29.0111 47.9486C29.3292 48.4014 30.3281 48.5114 30.7054 48.1355C30.9755 47.8662 30.9902 47.1729 30.7356 46.6987C30.4832 46.229 29.5691 46.2357 29.0923 46.7108ZM39.5403 46.7108C38.8478 47.4009 39.2846 48.5373 40.2421 48.5373C40.7409 48.5373 41.3732 47.9247 41.3732 47.4414C41.3732 47.2405 41.2083 46.9117 41.0066 46.7108C40.805 46.5099 40.4751 46.3455 40.2735 46.3455C40.0718 46.3455 39.7419 46.5099 39.5403 46.7108Z" fill="black"/>
</svg>
