<svg width="37" height="37" viewBox="0 0 37 37" fill="none" xmlns="http://www.w3.org/2000/svg">
<path d="M14.4297 7.57492V7.57492C13.0362 7.57492 12.3394 7.57492 11.7564 7.66726C8.54724 8.17555 6.03031 10.6925 5.52202 13.9017C5.42969 14.4847 5.42969 15.1814 5.42969 16.5749V19.5749C5.42969 23.7753 5.42969 25.8755 6.24714 27.4799C6.96619 28.8911 8.11355 30.0384 9.52476 30.7575C11.1291 31.5749 13.2293 31.5749 17.4297 31.5749H20.4297C24.6301 31.5749 26.7303 31.5749 28.3346 30.7575C29.7458 30.0384 30.8932 28.8911 31.6123 27.4799C32.4297 25.8755 32.4297 23.7753 32.4297 19.5749V16.5749C32.4297 15.1814 32.4297 14.4847 32.3374 13.9017C31.8291 10.6925 29.3122 8.17555 26.103 7.66726C25.52 7.57492 24.8232 7.57492 23.4297 7.57492V7.57492M14.4297 7.57492V9.82492M14.4297 7.57492V4.57492M14.4297 7.57492H23.4297M23.4297 7.57492V4.57492M23.4297 7.57492V9.82492M18.9297 25.5749V15.0749M12.1797 25.5749V15.0749M25.6797 25.5749V15.0749" stroke="#1C1D1D" stroke-width="2.25" stroke-linecap="round" stroke-linejoin="round"/>
</svg>
