<svg width="37" height="37" viewBox="0 0 37 37" fill="none" xmlns="http://www.w3.org/2000/svg">
<path d="M15.5547 12.8063C15.5547 13.6347 14.8831 14.3063 14.0547 14.3063C13.2263 14.3063 12.5547 13.6347 12.5547 12.8063C12.5547 11.9778 13.2263 11.3063 14.0547 11.3063C14.8831 11.3063 15.5547 11.9778 15.5547 12.8063Z" fill="#1C1D1D"/>
<path d="M18.9297 12.8063H24.1797M13.6797 18.8063H24.1797M13.6797 24.8063H24.1797M16.5297 32.3063H21.3297C24.7045 32.3063 26.3918 32.3063 27.5747 31.4469C27.9568 31.1693 28.2927 30.8334 28.5703 30.4513C29.4297 29.2684 29.4297 27.581 29.4297 24.2063V13.4063C29.4297 10.0315 29.4297 8.34414 28.5703 7.16124C28.2927 6.77922 27.9568 6.44326 27.5747 6.1657C26.3918 5.30627 24.7045 5.30627 21.3297 5.30627H16.5297C13.1549 5.30627 11.4676 5.30627 10.2847 6.1657C9.90263 6.44326 9.56667 6.77922 9.28911 7.16124C8.42969 8.34414 8.42969 10.0315 8.42969 13.4063V24.2063C8.42969 27.581 8.42969 29.2684 9.28911 30.4513C9.56667 30.8334 9.90263 31.1693 10.2847 31.4469C11.4676 32.3063 13.1549 32.3063 16.5297 32.3063Z" stroke="#1C1D1D" stroke-width="2.25" stroke-linecap="round" stroke-linejoin="round"/>
</svg>
