<svg width="37" height="37" viewBox="0 0 37 37" fill="none" xmlns="http://www.w3.org/2000/svg">
<path d="M28.1665 14.026V23.1241C28.1665 24.0858 28.1665 24.5666 27.9883 24.9874C27.9296 25.1259 27.8572 25.2581 27.7721 25.3822C27.5136 25.759 27.1085 26.0181 26.2983 26.5362L21.1115 29.8527C20.1724 30.4532 19.7028 30.7535 19.1852 30.8126C19.0154 30.832 18.844 30.832 18.6743 30.8126C18.1566 30.7535 17.687 30.4532 16.7479 29.8527L11.5611 26.5362C10.7509 26.0181 10.3457 25.759 10.0873 25.3822C10.0022 25.2581 9.9298 25.1259 9.87113 24.9874C9.69285 24.5666 9.69285 24.0858 9.69285 23.1241V14.026M32.4297 11.9621L20.6232 6.52734C19.8839 6.18705 19.5143 6.0169 19.1236 5.98311C18.9946 5.97195 18.8648 5.97195 18.7358 5.98311C18.3451 6.0169 17.9755 6.18705 17.2362 6.52734L5.42969 11.9621L17.1649 17.6434C17.934 18.0158 18.3185 18.2019 18.7271 18.2389C18.8619 18.2511 18.9975 18.2511 19.1323 18.2389C19.5409 18.2019 19.9254 18.0158 20.6945 17.6434L32.4297 11.9621ZM32.4297 11.9621V25.8478C32.4297 26.7292 32.4297 27.17 32.2767 27.5634C32.2262 27.6931 32.1639 27.8179 32.0903 27.9361C31.8674 28.2945 31.5148 28.559 30.8097 29.0878L29.0547 30.4041" stroke="#1C1D1D" stroke-width="2.25" stroke-linecap="round" stroke-linejoin="round"/>
</svg>
