<svg width="37" height="37" viewBox="0 0 37 37" fill="none" xmlns="http://www.w3.org/2000/svg">
<path d="M8.7607 12.0081C12.7379 8.03091 14.7265 6.04231 17.1334 5.6611C17.9107 5.53798 18.7026 5.53798 19.4799 5.6611C21.8868 6.04231 23.8754 8.03091 27.8526 12.0081V12.0081C29.5841 13.7397 30.4499 14.6054 30.9892 15.6638C31.1676 16.0139 31.3182 16.3775 31.4396 16.7511C31.8067 17.8809 31.8067 19.1053 31.8067 21.554V27.9622C31.8067 30.4475 29.7919 32.4622 27.3066 32.4622V32.4622C24.8214 32.4622 22.8066 30.4475 22.8066 27.9622V26.4622C22.8066 23.9769 20.7919 21.9622 18.3066 21.9622V21.9622C15.8214 21.9622 13.8066 23.9769 13.8066 26.4622V27.9622C13.8066 30.4475 11.7919 32.4622 9.30664 32.4622V32.4622C6.82136 32.4622 4.80664 30.4475 4.80664 27.9622V21.5541C4.80664 19.1053 4.80664 17.8809 5.17372 16.7511C5.29513 16.3775 5.44572 16.0139 5.62409 15.6638C6.16338 14.6054 7.02915 13.7397 8.7607 12.0081V12.0081Z" stroke="#1C1D1D" stroke-width="2.25" stroke-linejoin="round"/>
</svg>
