<svg width="37" height="37" viewBox="0 0 37 37" fill="none" xmlns="http://www.w3.org/2000/svg">
<path d="M14.6745 9.3928C15.2551 7.73322 15.5453 6.90343 15.8054 6.51161C17.2889 4.27694 20.5705 4.27694 22.054 6.51161C22.3141 6.90343 22.6183 7.77298 23.2267 9.51209V9.51209C23.3538 9.8756 23.4174 10.0573 23.4859 10.2087C24.0439 11.4414 25.2228 12.278 26.5707 12.3976C26.7361 12.4123 26.9187 12.4123 27.2839 12.4123H27.6506C28.7036 12.4123 29.2301 12.4123 29.4931 12.4497C32.5951 12.8914 33.8196 16.7169 31.5507 18.8778C31.3584 19.061 30.9297 19.3667 30.0724 19.9782V19.9782C29.8276 20.1529 29.7051 20.2402 29.6008 20.3266C28.4693 21.264 27.9894 22.7758 28.3733 24.1942C28.4086 24.3249 28.4599 24.4716 28.5625 24.7649V24.7649C28.9949 26.0008 29.2111 26.6188 29.264 26.942C29.7462 29.8871 26.762 32.1881 24.0363 30.9729C23.7372 30.8396 23.2115 30.4848 22.1601 29.7754L21.4733 29.3119C21.045 29.0229 20.8309 28.8784 20.6193 28.7716C19.5567 28.2353 18.3027 28.2353 17.2401 28.7716C17.0285 28.8784 16.8144 29.0229 16.3861 29.3119L15.7296 29.7549C14.6538 30.4808 14.1159 30.8438 13.8092 30.9791C11.0911 32.1777 8.12486 29.8905 8.59297 26.957C8.64578 26.626 8.86683 25.9941 9.30891 24.7304V24.7304C9.41277 24.4335 9.46469 24.2851 9.50049 24.1523C9.8771 22.7544 9.41548 21.2647 8.31447 20.3247C8.20983 20.2354 8.08703 20.1452 7.84142 19.9649V19.9649C6.9876 19.338 6.56069 19.0245 6.36744 18.8342C4.15925 16.6597 5.39214 12.8973 8.45902 12.4513C8.72742 12.4123 9.25704 12.4123 10.3163 12.4123H10.5877C10.9412 12.4123 11.118 12.4123 11.2781 12.3985C12.6339 12.2821 13.8202 11.4403 14.3779 10.199C14.4438 10.0523 14.5021 9.88548 14.6189 9.5518L14.6745 9.3928Z" stroke="#1C1D1D" stroke-width="2.25" stroke-linejoin="round"/>
</svg>
